<svg xmlns="http://www.w3.org/2000/svg" xmlns:xlink="http://www.w3.org/1999/xlink" viewBox="0 0 212.5 45.6" width="213" height="46"><defs><linearGradient id="linear-gradient" x1="125.89" y1="22.62" x2="126.2" y2="22.62" gradientUnits="userSpaceOnUse"><stop offset="0" stop-color="#73a441"/><stop offset=".07" stop-color="#6ea44a"/><stop offset=".19" stop-color="#5fa264"/><stop offset=".33" stop-color="#48a08d"/><stop offset=".5" stop-color="#279dc6"/><stop offset=".55" stop-color="#1d9cd8"/><stop offset=".87" stop-color="#0675bc"/><stop offset=".99" stop-color="#395124"/></linearGradient><linearGradient id="linear-gradient-2" x1="125.89" y1="26.29" x2="126.2" y2="26.29" xlink:href="#linear-gradient"/><linearGradient id="linear-gradient-3" x1="125.89" y1="22.37" x2="126.2" y2="22.37" xlink:href="#linear-gradient"/><linearGradient id="linear-gradient-5" x1="125.93" y1="26.27" x2="126.21" y2="26.32" xlink:href="#linear-gradient"/><linearGradient id="linear-gradient-7" x1="125.89" y1="26.3" x2="126.2" y2="26.3" xlink:href="#linear-gradient"/><linearGradient id="linear-gradient-8" x1="135.95" y1="26.3" x2="136.23" y2="26.3" xlink:href="#linear-gradient"/><style>.cls-2{fill:url(#linear-gradient)}.cls-4{fill:url(#linear-gradient-3)}.cls-14{fill:#271f13}</style></defs><g id="Layer_2" data-name="Layer 2"><g id="Layer_1-2" data-name="Layer 1"><path d="M167.83 37q-8.52 0-7.4-6.36l1.36-7.74a6.88 6.88 0 013.07-4.71 11.74 11.74 0 016.58-1.68c2.69 0 4.68.57 6 1.69a4.72 4.72 0 011.43 4.7l-1.37 7.74a6.92 6.92 0 01-5.54 5.92 16.81 16.81 0 01-4.13.44zm.61-3.46c2.37 0 3.71-.89 4-2.69l1.44-8.17a2 2 0 00-.53-2.07 4.12 4.12 0 00-2.55-.62c-2.36 0-3.7.89-4 2.69l-1.44 8.17a2 2 0 00.52 2.07 4.08 4.08 0 002.56.58z" fill="#3a5125"/><path class="cls-2" d="M40.52 36.12l4.76-27h5.45l-2 11.49h11.83l2-11.49H68l-4.76 27h-5.41l2-11.25H48l-2 11.25z"/><path d="M74.07 36.21a6.7 6.7 0 01-2.45-1q-2.19-1.5-1.54-5.2l1.35-7.66a6.63 6.63 0 013.07-4.65 11.55 11.55 0 016.42-1.65q8.35 0 7.22 6.44l-.84 4.76H75.54l-.54 3.2c-.19 1.08 0 1.79.43 2.13a4.88 4.88 0 002.64.5 8 8 0 002.3-.18 2.79 2.79 0 001.26-1.11 6.55 6.55 0 00.57-1.71h4.61c-.6 3-2 4.94-4.21 5.75a13.41 13.41 0 01-4.52.7 17.84 17.84 0 01-4.01-.32zm2-12h7.07l.4-2.31c.21-1.18-.14-1.9-1-2.17a7.8 7.8 0 00-2.24-.21 5.6 5.6 0 00-2.54.52 2.51 2.51 0 00-1.26 2z" fill="url(#linear-gradient-2)"/><path class="cls-4" d="M97.35 36.34q-3.37 0-4.74-1.54t-.72-5.14L95.64 8.4h5l-3.76 21.19a2.73 2.73 0 00.35 2.35 3.59 3.59 0 002.62.7h.63l-1 3.7zM110.31 36.34q-3.39 0-4.75-1.54t-.72-5.14l3.75-21.26h5l-3.74 21.19a2.73 2.73 0 00.36 2.35 3.57 3.57 0 002.62.7h.62l-1 3.7z"/><path d="M124.38 36.54c-5.69 0-8.15-2.12-7.41-6.37l1.37-7.73a6.85 6.85 0 013.07-4.71 11.69 11.69 0 016.59-1.68q4 0 6 1.69a4.71 4.71 0 011.42 4.7L134 30.17a6.93 6.93 0 01-5.55 5.93 17.17 17.17 0 01-4.07.44zm.61-3.46c2.36 0 3.7-.89 4-2.69l1.44-8.17a2 2 0 00-.53-2.07 4.07 4.07 0 00-2.54-.62c-2.37 0-3.71.89-4 2.69l-1.44 8.17a2 2 0 00.52 2.07 4.1 4.1 0 002.56.62z" fill="url(#linear-gradient-5)"/><path class="cls-2" d="M138.72 36.12l4.76-27h5.44l-4 22.76h11.29l-.75 4.24z"/><path d="M190.11 36.54q-5.7 0-6.92-2.56a6.17 6.17 0 01-.36-3.84l1.38-7.87a6.72 6.72 0 012.95-4.58 11.24 11.24 0 016.38-1.64q4 0 5.68 1.56c1.15 1.05 1.49 2.95 1 5.72l-4.75.37c.31-1.77.3-2.91 0-3.42a1.4 1.4 0 00-.84-.63 9.84 9.84 0 00-1.88-.12c-2 0-3.2.92-3.52 2.76l-1.4 7.94a2.31 2.31 0 00.41 2.18 3.25 3.25 0 002.25.64 6.37 6.37 0 002.25-.29 2.23 2.23 0 001.11-1.08 9.5 9.5 0 00.71-2.51h4.65a16.63 16.63 0 01-1 3.51 6.29 6.29 0 01-1.68 2.23q-1.98 1.62-6.42 1.63z" fill="url(#linear-gradient-7)"/><path fill="#e7ba4d" d="M206.75 13.67l.78-4.41h4.97l-.77 4.41h-4.98z"/><path fill="url(#linear-gradient-8)" d="M202.79 36.12l3.47-19.65h4.97l-3.46 19.65h-4.98z"/><path id="aqmTUAIlA" d="M30.54 41.26c.08 2.09-6 4-13.49 4.31S3.36 44.39 3.28 42.3s6-4 13.48-4.31 13.7 1.17 13.78 3.27z" fill="#355226"/><path id="cvrYWNOWe" d="M20.7 36.37c-2.19 2.73-3.83 4.53-3.83 4.53s-1.77-1.67-4.16-4.23C7.79 31.42.24 22.43 0 16.52a15.92 15.92 0 0131.82-1.22C32 21.21 25.2 30.75 20.7 36.37z" fill="#1d9ab9"/><path id="cdwkv5qO7" d="M16.41 28a12.08 12.08 0 01-8.28-2.84c-1.64 1-3 1.69-3.37 1.88a92.45 92.45 0 008 9.6c2.39 2.56 4.16 4.23 4.16 4.23s1.64-1.8 3.83-4.53C25.2 30.75 32 21.21 31.82 15.3a15.88 15.88 0 00-5-11c-.88 1.81-1.68 3.18-1.82 3.54A12.13 12.13 0 0116.41 28z" fill="#64a844"/><path d="M16.41 28a12.08 12.08 0 01-8.28-2.84c-1.64 1-3 1.69-3.37 1.88a92.45 92.45 0 008 9.6c2.39 2.56 4.16 4.23 4.16 4.23s1.64-1.8 3.83-4.53C25.2 30.75 32 21.21 31.82 15.3a15.88 15.88 0 00-5-11c-.88 1.81-1.68 3.18-1.82 3.54A12.13 12.13 0 0116.41 28z" fill="#010101" fill-opacity="0" stroke="#010101" stroke-opacity="0"/><path id="d28wMPlrs7" d="M15.45 3.89A12.12 12.12 0 1028 15.54 12.12 12.12 0 0015.45 3.89z" fill="#efb92c"/><path class="cls-14" d="M21.47 21.92a2.69 2.69 0 01-2.12-.6 2.68 2.68 0 01-.4-2.25l1.29-9.42 2.19-.09L21.15 19a1.19 1.19 0 00.19 1 1.61 1.61 0 001.17.26h.27l-.39 1.65zM9.44 22.29L11.13 10l2.19-.09-.61 4.42a2.55 2.55 0 011.14-.78 5.82 5.82 0 011.88-.36 2.19 2.19 0 011.69.6 2 2 0 01.48 1.76L17 22l-2.2.08.86-6.08c.11-.75-.33-1.1-1.32-1.07a2.48 2.48 0 00-1.23.39 1.32 1.32 0 00-.66.95l-.82 6z"/></g></g></svg>